<mxfile host="app.diagrams.net" modified="2022-06-25T16:21:00.613Z" agent="5.0 (Windows NT 10.0; WOW64) AppleWebKit/537.36 (KHTML, like Gecko) Chrome/94.0.4606.54 Safari/537.36" etag="qJBsxpXi_w7nkQTLRqMZ" version="20.0.3" type="github">
  <diagram id="UQvTM-OoT8rPaZwAWUMa" name="Page-1">
    <mxGraphModel dx="1550" dy="811" grid="1" gridSize="10" guides="1" tooltips="1" connect="1" arrows="1" fold="1" page="1" pageScale="1" pageWidth="827" pageHeight="1169" math="0" shadow="0">
      <root>
        <mxCell id="0" />
        <mxCell id="1" parent="0" />
        <mxCell id="-Gof_iz7Jo8x0-9tWo7E-26" value="PxSceneMgr::GetScene(map_gid, position)" style="rounded=0;whiteSpace=wrap;html=1;fillColor=#52FF26;" vertex="1" parent="1">
          <mxGeometry x="160" y="240" width="190" height="60" as="geometry" />
        </mxCell>
        <mxCell id="-Gof_iz7Jo8x0-9tWo7E-27" value="根据坐标获得九宫格的sector_list" style="rounded=0;whiteSpace=wrap;html=1;fillColor=#52FF26;" vertex="1" parent="1">
          <mxGeometry x="160" y="300" width="190" height="60" as="geometry" />
        </mxCell>
        <mxCell id="-Gof_iz7Jo8x0-9tWo7E-28" value="放入待加载队列" style="rounded=0;whiteSpace=wrap;html=1;fillColor=#52FF26;" vertex="1" parent="1">
          <mxGeometry x="160" y="360" width="190" height="70" as="geometry" />
        </mxCell>
        <mxCell id="-Gof_iz7Jo8x0-9tWo7E-29" value="待加载队列" style="shape=partialRectangle;whiteSpace=wrap;html=1;left=0;right=0;fillColor=#FFFF66;" vertex="1" parent="1">
          <mxGeometry x="414" y="360" width="120" height="60" as="geometry" />
        </mxCell>
        <mxCell id="-Gof_iz7Jo8x0-9tWo7E-30" value="加载完成队列" style="shape=partialRectangle;whiteSpace=wrap;html=1;left=0;right=0;fillColor=#FFFF66;" vertex="1" parent="1">
          <mxGeometry x="414" y="437" width="120" height="60" as="geometry" />
        </mxCell>
        <mxCell id="-Gof_iz7Jo8x0-9tWo7E-31" value="" style="endArrow=classic;html=1;rounded=0;exitX=1;exitY=0.5;exitDx=0;exitDy=0;" edge="1" parent="1" source="-Gof_iz7Jo8x0-9tWo7E-28">
          <mxGeometry width="50" height="50" relative="1" as="geometry">
            <mxPoint x="210" y="440" as="sourcePoint" />
            <mxPoint x="420" y="395" as="targetPoint" />
          </mxGeometry>
        </mxCell>
        <mxCell id="-Gof_iz7Jo8x0-9tWo7E-32" value="&lt;div style=&quot;line-height: 24px;&quot;&gt;PhysxSceneLoadSvc::ProcessAsyncLoad()检查待加载队列&lt;/div&gt;" style="rounded=0;whiteSpace=wrap;html=1;fillColor=#3399FF;" vertex="1" parent="1">
          <mxGeometry x="560" y="362" width="240" height="70" as="geometry" />
        </mxCell>
        <mxCell id="-Gof_iz7Jo8x0-9tWo7E-33" value="" style="endArrow=classic;html=1;rounded=0;exitX=1;exitY=0.617;exitDx=0;exitDy=0;exitPerimeter=0;entryX=0;entryY=0.5;entryDx=0;entryDy=0;" edge="1" parent="1" source="-Gof_iz7Jo8x0-9tWo7E-29" target="-Gof_iz7Jo8x0-9tWo7E-32">
          <mxGeometry width="50" height="50" relative="1" as="geometry">
            <mxPoint x="220" y="420" as="sourcePoint" />
            <mxPoint x="270" y="370" as="targetPoint" />
          </mxGeometry>
        </mxCell>
        <mxCell id="-Gof_iz7Jo8x0-9tWo7E-34" value="&lt;div style=&quot;line-height: 24px;&quot;&gt;PxSectorLoader::LoadScene()&lt;/div&gt;" style="rounded=0;whiteSpace=wrap;html=1;fillColor=#3399FF;" vertex="1" parent="1">
          <mxGeometry x="560" y="432" width="240" height="70" as="geometry" />
        </mxCell>
        <mxCell id="-Gof_iz7Jo8x0-9tWo7E-35" value="&lt;div style=&quot;line-height: 24px;&quot;&gt;PhysxSceneLoadSvc::Tick()检查加载完成队列&lt;/div&gt;" style="rounded=0;whiteSpace=wrap;html=1;fillColor=#52FF26;" vertex="1" parent="1">
          <mxGeometry x="160" y="430" width="190" height="70" as="geometry" />
        </mxCell>
        <mxCell id="-Gof_iz7Jo8x0-9tWo7E-36" value="" style="endArrow=classic;html=1;rounded=0;exitX=0;exitY=0.5;exitDx=0;exitDy=0;entryX=1;entryY=0.5;entryDx=0;entryDy=0;" edge="1" parent="1" source="-Gof_iz7Jo8x0-9tWo7E-34" target="-Gof_iz7Jo8x0-9tWo7E-30">
          <mxGeometry width="50" height="50" relative="1" as="geometry">
            <mxPoint x="220" y="520" as="sourcePoint" />
            <mxPoint x="270" y="470" as="targetPoint" />
          </mxGeometry>
        </mxCell>
        <mxCell id="-Gof_iz7Jo8x0-9tWo7E-37" value="" style="endArrow=classic;html=1;rounded=0;exitX=0;exitY=0.5;exitDx=0;exitDy=0;" edge="1" parent="1" source="-Gof_iz7Jo8x0-9tWo7E-30">
          <mxGeometry width="50" height="50" relative="1" as="geometry">
            <mxPoint x="570" y="537" as="sourcePoint" />
            <mxPoint x="350" y="467" as="targetPoint" />
          </mxGeometry>
        </mxCell>
        <mxCell id="-Gof_iz7Jo8x0-9tWo7E-38" value="主线程" style="ellipse;whiteSpace=wrap;html=1;fillColor=#52FF26;" vertex="1" parent="1">
          <mxGeometry x="201" y="140" width="120" height="80" as="geometry" />
        </mxCell>
        <mxCell id="-Gof_iz7Jo8x0-9tWo7E-39" value="加载线程" style="ellipse;whiteSpace=wrap;html=1;fillColor=#3399FF;" vertex="1" parent="1">
          <mxGeometry x="610" y="130" width="120" height="80" as="geometry" />
        </mxCell>
      </root>
    </mxGraphModel>
  </diagram>
</mxfile>
